<svg xmlns="http://www.w3.org/2000/svg" viewBox="0 0 120 90" fill="none">
  <rect width="120" height="90" rx="8" fill="#1a1a2e"/>
  <rect x="1" y="1" width="118" height="88" rx="7" stroke="#6e7681" stroke-width="0.5" stroke-opacity="0.3"/>
  <path d="M60 20c-11 0-20 9-20 20 0 8.8 5.7 16.3 13.7 19 1 .2 1.3-.5 1.3-1 0-.5 0-2 0-3.7-5.6 1.2-6.8-2.4-6.8-2.4-.9-2.3-2.2-3-2.2-3-1.9-1.2.1-1.2.1-1.2 2 .1 3 2 3 2 1.7 3 4.5 2.1 5.6 1.6.2-1.3.7-2.1 1.3-2.6-4.3-.5-8.8-2.2-8.8-9.7 0-2.1.8-3.9 2-5.3-.2-.5-.9-2.5.2-5.2 0 0 1.6-.5 5.3 2a18 18 0 019.6 0c3.7-2.5 5.3-2 5.3-2 1.1 2.7.4 4.7.2 5.2 1.3 1.3 2 3.1 2 5.3 0 7.5-4.5 9.2-8.8 9.7.7.6 1.3 1.8 1.3 3.6 0 2.6 0 4.7 0 5.3 0 .6.4 1.3 1.4 1 8-2.7 13.7-10.2 13.7-19 0-11-9-20-20-20z" fill="#6e7681" opacity="0.9"/>
</svg>