<svg xmlns="http://www.w3.org/2000/svg" viewBox="0 0 120 90" fill="none">
  <rect width="120" height="90" rx="8" fill="#1a1a2e"/>
  <rect x="1" y="1" width="118" height="88" rx="7" stroke="#1d9bf0" stroke-width="0.5" stroke-opacity="0.3"/>
  <path d="M85 33a20 20 0 01-5.7 1.6 10 10 0 004.4-5.5 20 20 0 01-6.3 2.4 10 10 0 00-17-6 10 10 0 00-3 6.7c0 .8.1 1.6.3 2.3a28.4 28.4 0 01-20.6-10.5 10 10 0 003.1 13.4 10 10 0 01-4.5-1.3v.1a10 10 0 008 9.9 10 10 0 01-4.5.1 10 10 0 009.3 7 20 20 0 01-12.4 4.3A20 20 0 0130 63a28 28 0 0015.2 4.4c18.2 0 28.2-15.1 28.2-28.2 0-.4 0-.9 0-1.3A20 20 0 0085 33z" fill="#1d9bf0" opacity="0.9"/>
</svg>